<svg width="837" height="411" viewBox="0 0 837 411" fill="none" xmlns="http://www.w3.org/2000/svg">
<rect width="837" height="398" rx="5" fill="black"/>
<rect x="5" y="5" width="826" height="388" rx="5" fill="white"/>
<path d="M38.2955 349.364V361H36.8864V350.841H36.8182L33.9773 352.727V351.295L36.8864 349.364H38.2955ZM49.9375 361.159C49.0814 361.159 48.3523 360.926 47.75 360.46C47.1477 359.991 46.6875 359.311 46.3693 358.42C46.0511 357.527 45.892 356.447 45.892 355.182C45.892 353.924 46.0511 352.85 46.3693 351.96C46.6913 351.066 47.1534 350.384 47.7557 349.915C48.3617 349.441 49.089 349.205 49.9375 349.205C50.786 349.205 51.5114 349.441 52.1136 349.915C52.7197 350.384 53.1818 351.066 53.5 351.96C53.822 352.85 53.983 353.924 53.983 355.182C53.983 356.447 53.8239 357.527 53.5057 358.42C53.1875 359.311 52.7273 359.991 52.125 360.46C51.5227 360.926 50.7936 361.159 49.9375 361.159ZM49.9375 359.909C50.786 359.909 51.4451 359.5 51.9148 358.682C52.3845 357.864 52.6193 356.697 52.6193 355.182C52.6193 354.174 52.5114 353.316 52.2955 352.608C52.0833 351.9 51.7765 351.36 51.375 350.989C50.9773 350.617 50.4981 350.432 49.9375 350.432C49.0966 350.432 48.4394 350.847 47.9659 351.676C47.4924 352.502 47.2557 353.67 47.2557 355.182C47.2557 356.189 47.3617 357.045 47.5739 357.75C47.786 358.455 48.0909 358.991 48.4886 359.358C48.8902 359.725 49.3731 359.909 49.9375 359.909ZM59.9375 361.159C59.0814 361.159 58.3523 360.926 57.75 360.46C57.1477 359.991 56.6875 359.311 56.3693 358.42C56.0511 357.527 55.892 356.447 55.892 355.182C55.892 353.924 56.0511 352.85 56.3693 351.96C56.6913 351.066 57.1534 350.384 57.7557 349.915C58.3617 349.441 59.089 349.205 59.9375 349.205C60.786 349.205 61.5114 349.441 62.1136 349.915C62.7197 350.384 63.1818 351.066 63.5 351.96C63.822 352.85 63.983 353.924 63.983 355.182C63.983 356.447 63.8239 357.527 63.5057 358.42C63.1875 359.311 62.7273 359.991 62.125 360.46C61.5227 360.926 60.7936 361.159 59.9375 361.159ZM59.9375 359.909C60.786 359.909 61.4451 359.5 61.9148 358.682C62.3845 357.864 62.6193 356.697 62.6193 355.182C62.6193 354.174 62.5114 353.316 62.2955 352.608C62.0833 351.9 61.7765 351.36 61.375 350.989C60.9773 350.617 60.4981 350.432 59.9375 350.432C59.0966 350.432 58.4394 350.847 57.9659 351.676C57.4924 352.502 57.2557 353.67 57.2557 355.182C57.2557 356.189 57.3617 357.045 57.5739 357.75C57.786 358.455 58.0909 358.991 58.4886 359.358C58.8902 359.725 59.3731 359.909 59.9375 359.909ZM69.9375 361.159C69.0814 361.159 68.3523 360.926 67.75 360.46C67.1477 359.991 66.6875 359.311 66.3693 358.42C66.0511 357.527 65.892 356.447 65.892 355.182C65.892 353.924 66.0511 352.85 66.3693 351.96C66.6913 351.066 67.1534 350.384 67.7557 349.915C68.3617 349.441 69.089 349.205 69.9375 349.205C70.786 349.205 71.5114 349.441 72.1136 349.915C72.7197 350.384 73.1818 351.066 73.5 351.96C73.822 352.85 73.983 353.924 73.983 355.182C73.983 356.447 73.8239 357.527 73.5057 358.42C73.1875 359.311 72.7273 359.991 72.125 360.46C71.5227 360.926 70.7936 361.159 69.9375 361.159ZM69.9375 359.909C70.786 359.909 71.4451 359.5 71.9148 358.682C72.3845 357.864 72.6193 356.697 72.6193 355.182C72.6193 354.174 72.5114 353.316 72.2955 352.608C72.0833 351.9 71.7765 351.36 71.375 350.989C70.9773 350.617 70.4981 350.432 69.9375 350.432C69.0966 350.432 68.4394 350.847 67.9659 351.676C67.4924 352.502 67.2557 353.67 67.2557 355.182C67.2557 356.189 67.3617 357.045 67.5739 357.75C67.786 358.455 68.0909 358.991 68.4886 359.358C68.8902 359.725 69.3731 359.909 69.9375 359.909Z" fill="black"/>
<path d="M34.2045 271V269.977L38.0455 265.773C38.4962 265.28 38.8674 264.852 39.1591 264.489C39.4508 264.121 39.6667 263.777 39.8068 263.455C39.9508 263.129 40.0227 262.788 40.0227 262.432C40.0227 262.023 39.9242 261.669 39.7273 261.369C39.5341 261.07 39.2689 260.839 38.9318 260.676C38.5947 260.513 38.2159 260.432 37.7955 260.432C37.3485 260.432 36.9583 260.525 36.625 260.71C36.2955 260.892 36.0398 261.148 35.858 261.477C35.6799 261.807 35.5909 262.193 35.5909 262.636H34.25C34.25 261.955 34.4072 261.356 34.7216 260.841C35.036 260.326 35.464 259.924 36.0057 259.636C36.5511 259.348 37.1629 259.205 37.8409 259.205C38.5227 259.205 39.1269 259.348 39.6534 259.636C40.1799 259.924 40.5928 260.312 40.892 260.801C41.1913 261.29 41.3409 261.833 41.3409 262.432C41.3409 262.86 41.2633 263.278 41.108 263.688C40.9564 264.093 40.6913 264.545 40.3125 265.045C39.9375 265.542 39.4167 266.148 38.75 266.864L36.1364 269.659V269.75H41.5455V271H34.2045ZM52.1875 271.159C51.3314 271.159 50.6023 270.926 50 270.46C49.3977 269.991 48.9375 269.311 48.6193 268.42C48.3011 267.527 48.142 266.447 48.142 265.182C48.142 263.924 48.3011 262.85 48.6193 261.96C48.9413 261.066 49.4034 260.384 50.0057 259.915C50.6117 259.441 51.339 259.205 52.1875 259.205C53.036 259.205 53.7614 259.441 54.3636 259.915C54.9697 260.384 55.4318 261.066 55.75 261.96C56.072 262.85 56.233 263.924 56.233 265.182C56.233 266.447 56.0739 267.527 55.7557 268.42C55.4375 269.311 54.9773 269.991 54.375 270.46C53.7727 270.926 53.0436 271.159 52.1875 271.159ZM52.1875 269.909C53.036 269.909 53.6951 269.5 54.1648 268.682C54.6345 267.864 54.8693 266.697 54.8693 265.182C54.8693 264.174 54.7614 263.316 54.5455 262.608C54.3333 261.9 54.0265 261.36 53.625 260.989C53.2273 260.617 52.7481 260.432 52.1875 260.432C51.3466 260.432 50.6894 260.847 50.2159 261.676C49.7424 262.502 49.5057 263.67 49.5057 265.182C49.5057 266.189 49.6117 267.045 49.8239 267.75C50.036 268.455 50.3409 268.991 50.7386 269.358C51.1402 269.725 51.6231 269.909 52.1875 269.909ZM62.1875 271.159C61.3314 271.159 60.6023 270.926 60 270.46C59.3977 269.991 58.9375 269.311 58.6193 268.42C58.3011 267.527 58.142 266.447 58.142 265.182C58.142 263.924 58.3011 262.85 58.6193 261.96C58.9413 261.066 59.4034 260.384 60.0057 259.915C60.6117 259.441 61.339 259.205 62.1875 259.205C63.036 259.205 63.7614 259.441 64.3636 259.915C64.9697 260.384 65.4318 261.066 65.75 261.96C66.072 262.85 66.233 263.924 66.233 265.182C66.233 266.447 66.0739 267.527 65.7557 268.42C65.4375 269.311 64.9773 269.991 64.375 270.46C63.7727 270.926 63.0436 271.159 62.1875 271.159ZM62.1875 269.909C63.036 269.909 63.6951 269.5 64.1648 268.682C64.6345 267.864 64.8693 266.697 64.8693 265.182C64.8693 264.174 64.7614 263.316 64.5455 262.608C64.3333 261.9 64.0265 261.36 63.625 260.989C63.2273 260.617 62.7481 260.432 62.1875 260.432C61.3466 260.432 60.6894 260.847 60.2159 261.676C59.7424 262.502 59.5057 263.67 59.5057 265.182C59.5057 266.189 59.6117 267.045 59.8239 267.75C60.036 268.455 60.3409 268.991 60.7386 269.358C61.1402 269.725 61.6231 269.909 62.1875 269.909ZM72.1875 271.159C71.3314 271.159 70.6023 270.926 70 270.46C69.3977 269.991 68.9375 269.311 68.6193 268.42C68.3011 267.527 68.142 266.447 68.142 265.182C68.142 263.924 68.3011 262.85 68.6193 261.96C68.9413 261.066 69.4034 260.384 70.0057 259.915C70.6117 259.441 71.339 259.205 72.1875 259.205C73.036 259.205 73.7614 259.441 74.3636 259.915C74.9697 260.384 75.4318 261.066 75.75 261.96C76.072 262.85 76.233 263.924 76.233 265.182C76.233 266.447 76.0739 267.527 75.7557 268.42C75.4375 269.311 74.9773 269.991 74.375 270.46C73.7727 270.926 73.0436 271.159 72.1875 271.159ZM72.1875 269.909C73.036 269.909 73.6951 269.5 74.1648 268.682C74.6345 267.864 74.8693 266.697 74.8693 265.182C74.8693 264.174 74.7614 263.316 74.5455 262.608C74.3333 261.9 74.0265 261.36 73.625 260.989C73.2273 260.617 72.7481 260.432 72.1875 260.432C71.3466 260.432 70.6894 260.847 70.2159 261.676C69.7424 262.502 69.5057 263.67 69.5057 265.182C69.5057 266.189 69.6117 267.045 69.8239 267.75C70.036 268.455 70.3409 268.991 70.7386 269.358C71.1402 269.725 71.6231 269.909 72.1875 269.909Z" fill="black"/>
<path d="M38.1364 181.159C37.3864 181.159 36.7178 181.03 36.1307 180.773C35.5473 180.515 35.0833 180.157 34.7386 179.699C34.3977 179.237 34.2121 178.701 34.1818 178.091H35.6136C35.6439 178.466 35.7727 178.79 36 179.062C36.2273 179.331 36.5246 179.54 36.892 179.688C37.2595 179.835 37.6667 179.909 38.1136 179.909C38.6136 179.909 39.0568 179.822 39.4432 179.648C39.8295 179.473 40.1326 179.231 40.3523 178.92C40.572 178.61 40.6818 178.25 40.6818 177.841C40.6818 177.413 40.5758 177.036 40.3636 176.71C40.1515 176.381 39.8409 176.123 39.4318 175.938C39.0227 175.752 38.5227 175.659 37.9318 175.659H37V174.409H37.9318C38.3939 174.409 38.7992 174.326 39.1477 174.159C39.5 173.992 39.7746 173.758 39.9716 173.455C40.1723 173.152 40.2727 172.795 40.2727 172.386C40.2727 171.992 40.1856 171.65 40.0114 171.358C39.8371 171.066 39.5909 170.839 39.2727 170.676C38.9583 170.513 38.5871 170.432 38.1591 170.432C37.7576 170.432 37.3788 170.506 37.0227 170.653C36.6705 170.797 36.3826 171.008 36.1591 171.284C35.9356 171.557 35.8144 171.886 35.7955 172.273H34.4318C34.4545 171.663 34.6383 171.129 34.983 170.67C35.3277 170.208 35.7784 169.848 36.3352 169.591C36.8958 169.333 37.5114 169.205 38.1818 169.205C38.9015 169.205 39.5189 169.35 40.0341 169.642C40.5492 169.93 40.9451 170.311 41.2216 170.784C41.4981 171.258 41.6364 171.769 41.6364 172.318C41.6364 172.973 41.464 173.532 41.1193 173.994C40.7784 174.456 40.3144 174.777 39.7273 174.955V175.045C40.4621 175.167 41.036 175.479 41.4489 175.983C41.8617 176.483 42.0682 177.102 42.0682 177.841C42.0682 178.473 41.8958 179.042 41.5511 179.545C41.2102 180.045 40.7443 180.439 40.1534 180.727C39.5625 181.015 38.8902 181.159 38.1364 181.159ZM52.6875 181.159C51.8314 181.159 51.1023 180.926 50.5 180.46C49.8977 179.991 49.4375 179.311 49.1193 178.42C48.8011 177.527 48.642 176.447 48.642 175.182C48.642 173.924 48.8011 172.85 49.1193 171.96C49.4413 171.066 49.9034 170.384 50.5057 169.915C51.1117 169.441 51.839 169.205 52.6875 169.205C53.536 169.205 54.2614 169.441 54.8636 169.915C55.4697 170.384 55.9318 171.066 56.25 171.96C56.572 172.85 56.733 173.924 56.733 175.182C56.733 176.447 56.5739 177.527 56.2557 178.42C55.9375 179.311 55.4773 179.991 54.875 180.46C54.2727 180.926 53.5436 181.159 52.6875 181.159ZM52.6875 179.909C53.536 179.909 54.1951 179.5 54.6648 178.682C55.1345 177.864 55.3693 176.697 55.3693 175.182C55.3693 174.174 55.2614 173.316 55.0455 172.608C54.8333 171.9 54.5265 171.36 54.125 170.989C53.7273 170.617 53.2481 170.432 52.6875 170.432C51.8466 170.432 51.1894 170.847 50.7159 171.676C50.2424 172.502 50.0057 173.67 50.0057 175.182C50.0057 176.189 50.1117 177.045 50.3239 177.75C50.536 178.455 50.8409 178.991 51.2386 179.358C51.6402 179.725 52.1231 179.909 52.6875 179.909ZM62.6875 181.159C61.8314 181.159 61.1023 180.926 60.5 180.46C59.8977 179.991 59.4375 179.311 59.1193 178.42C58.8011 177.527 58.642 176.447 58.642 175.182C58.642 173.924 58.8011 172.85 59.1193 171.96C59.4413 171.066 59.9034 170.384 60.5057 169.915C61.1117 169.441 61.839 169.205 62.6875 169.205C63.536 169.205 64.2614 169.441 64.8636 169.915C65.4697 170.384 65.9318 171.066 66.25 171.96C66.572 172.85 66.733 173.924 66.733 175.182C66.733 176.447 66.5739 177.527 66.2557 178.42C65.9375 179.311 65.4773 179.991 64.875 180.46C64.2727 180.926 63.5436 181.159 62.6875 181.159ZM62.6875 179.909C63.536 179.909 64.1951 179.5 64.6648 178.682C65.1345 177.864 65.3693 176.697 65.3693 175.182C65.3693 174.174 65.2614 173.316 65.0455 172.608C64.8333 171.9 64.5265 171.36 64.125 170.989C63.7273 170.617 63.2481 170.432 62.6875 170.432C61.8466 170.432 61.1894 170.847 60.7159 171.676C60.2424 172.502 60.0057 173.67 60.0057 175.182C60.0057 176.189 60.1117 177.045 60.3239 177.75C60.536 178.455 60.8409 178.991 61.2386 179.358C61.6402 179.725 62.1231 179.909 62.6875 179.909ZM72.6875 181.159C71.8314 181.159 71.1023 180.926 70.5 180.46C69.8977 179.991 69.4375 179.311 69.1193 178.42C68.8011 177.527 68.642 176.447 68.642 175.182C68.642 173.924 68.8011 172.85 69.1193 171.96C69.4413 171.066 69.9034 170.384 70.5057 169.915C71.1117 169.441 71.839 169.205 72.6875 169.205C73.536 169.205 74.2614 169.441 74.8636 169.915C75.4697 170.384 75.9318 171.066 76.25 171.96C76.572 172.85 76.733 173.924 76.733 175.182C76.733 176.447 76.5739 177.527 76.2557 178.42C75.9375 179.311 75.4773 179.991 74.875 180.46C74.2727 180.926 73.5436 181.159 72.6875 181.159ZM72.6875 179.909C73.536 179.909 74.1951 179.5 74.6648 178.682C75.1345 177.864 75.3693 176.697 75.3693 175.182C75.3693 174.174 75.2614 173.316 75.0455 172.608C74.8333 171.9 74.5265 171.36 74.125 170.989C73.7273 170.617 73.2481 170.432 72.6875 170.432C71.8466 170.432 71.1894 170.847 70.7159 171.676C70.2424 172.502 70.0057 173.67 70.0057 175.182C70.0057 176.189 70.1117 177.045 70.3239 177.75C70.536 178.455 70.8409 178.991 71.2386 179.358C71.6402 179.725 72.1231 179.909 72.6875 179.909Z" fill="black"/>
<path d="M33.9318 88.6136V87.4545L39.0455 79.3636H39.8864V81.1591H39.3182L35.4545 87.2727V87.3636H42.3409V88.6136H33.9318ZM39.4091 91V88.2614V87.7216V79.3636H40.75V91H39.4091ZM52.7656 91.1591C51.9096 91.1591 51.1804 90.9261 50.5781 90.4602C49.9759 89.9905 49.5156 89.3106 49.1974 88.4205C48.8793 87.5265 48.7202 86.447 48.7202 85.1818C48.7202 83.9242 48.8793 82.8504 49.1974 81.9602C49.5194 81.0663 49.9815 80.3845 50.5838 79.9148C51.1899 79.4413 51.9171 79.2045 52.7656 79.2045C53.6141 79.2045 54.3395 79.4413 54.9418 79.9148C55.5478 80.3845 56.0099 81.0663 56.3281 81.9602C56.6501 82.8504 56.8111 83.9242 56.8111 85.1818C56.8111 86.447 56.652 87.5265 56.3338 88.4205C56.0156 89.3106 55.5554 89.9905 54.9531 90.4602C54.3509 90.9261 53.6217 91.1591 52.7656 91.1591ZM52.7656 89.9091C53.6141 89.9091 54.2732 89.5 54.7429 88.6818C55.2126 87.8636 55.4474 86.697 55.4474 85.1818C55.4474 84.1742 55.3395 83.3163 55.1236 82.608C54.9115 81.8996 54.6046 81.3598 54.2031 80.9886C53.8054 80.6174 53.3262 80.4318 52.7656 80.4318C51.9247 80.4318 51.2675 80.8466 50.794 81.6761C50.3205 82.5019 50.0838 83.6705 50.0838 85.1818C50.0838 86.1894 50.1899 87.0455 50.402 87.75C50.6141 88.4545 50.919 88.9905 51.3168 89.358C51.7183 89.7254 52.2012 89.9091 52.7656 89.9091ZM62.7656 91.1591C61.9096 91.1591 61.1804 90.9261 60.5781 90.4602C59.9759 89.9905 59.5156 89.3106 59.1974 88.4205C58.8793 87.5265 58.7202 86.447 58.7202 85.1818C58.7202 83.9242 58.8793 82.8504 59.1974 81.9602C59.5194 81.0663 59.9815 80.3845 60.5838 79.9148C61.1899 79.4413 61.9171 79.2045 62.7656 79.2045C63.6141 79.2045 64.3395 79.4413 64.9418 79.9148C65.5478 80.3845 66.0099 81.0663 66.3281 81.9602C66.6501 82.8504 66.8111 83.9242 66.8111 85.1818C66.8111 86.447 66.652 87.5265 66.3338 88.4205C66.0156 89.3106 65.5554 89.9905 64.9531 90.4602C64.3509 90.9261 63.6217 91.1591 62.7656 91.1591ZM62.7656 89.9091C63.6141 89.9091 64.2732 89.5 64.7429 88.6818C65.2126 87.8636 65.4474 86.697 65.4474 85.1818C65.4474 84.1742 65.3395 83.3163 65.1236 82.608C64.9115 81.8996 64.6046 81.3598 64.2031 80.9886C63.8054 80.6174 63.3262 80.4318 62.7656 80.4318C61.9247 80.4318 61.2675 80.8466 60.794 81.6761C60.3205 82.5019 60.0838 83.6705 60.0838 85.1818C60.0838 86.1894 60.1899 87.0455 60.402 87.75C60.6141 88.4545 60.919 88.9905 61.3168 89.358C61.7183 89.7254 62.2012 89.9091 62.7656 89.9091ZM72.7656 91.1591C71.9096 91.1591 71.1804 90.9261 70.5781 90.4602C69.9759 89.9905 69.5156 89.3106 69.1974 88.4205C68.8793 87.5265 68.7202 86.447 68.7202 85.1818C68.7202 83.9242 68.8793 82.8504 69.1974 81.9602C69.5194 81.0663 69.9815 80.3845 70.5838 79.9148C71.1899 79.4413 71.9171 79.2045 72.7656 79.2045C73.6141 79.2045 74.3395 79.4413 74.9418 79.9148C75.5478 80.3845 76.0099 81.0663 76.3281 81.9602C76.6501 82.8504 76.8111 83.9242 76.8111 85.1818C76.8111 86.447 76.652 87.5265 76.3338 88.4205C76.0156 89.3106 75.5554 89.9905 74.9531 90.4602C74.3509 90.9261 73.6217 91.1591 72.7656 91.1591ZM72.7656 89.9091C73.6141 89.9091 74.2732 89.5 74.7429 88.6818C75.2126 87.8636 75.4474 86.697 75.4474 85.1818C75.4474 84.1742 75.3395 83.3163 75.1236 82.608C74.9115 81.8996 74.6046 81.3598 74.2031 80.9886C73.8054 80.6174 73.3262 80.4318 72.7656 80.4318C71.9247 80.4318 71.2675 80.8466 70.794 81.6761C70.3205 82.5019 70.0838 83.6705 70.0838 85.1818C70.0838 86.1894 70.1899 87.0455 70.402 87.75C70.6141 88.4545 70.919 88.9905 71.3168 89.358C71.7183 89.7254 72.2012 89.9091 72.7656 89.9091Z" fill="black"/>
<line x1="23" y1="369.5" x2="813" y2="369.5" stroke="black" stroke-opacity="0.3"/>
<line x1="23" y1="279.5" x2="813" y2="279.5" stroke="black" stroke-opacity="0.3"/>
<line x1="23" y1="189.5" x2="813" y2="189.5" stroke="black" stroke-opacity="0.3"/>
<line x1="23" y1="99.5" x2="813" y2="99.4999" stroke="black" stroke-opacity="0.3"/>
<path d="M38.8675 342.265L234.499 306.747L304.999 342.265L417.499 263.747L565.999 238.247L662.999 146.747L759.5 103.747L812.867 130.265" stroke="black" stroke-width="2"/>
<path d="M23 345.5L233 306.5L304 342L417.5 264.5L563.5 239L661.966 147L759.5 104.5L812.5 130L813 369H23V345.5Z" fill="black" fill-opacity="0.2"/>
<rect x="351" y="206" width="184" height="29" rx="5" fill="#18232D"/>
<path d="M415.5 250.747L426.325 231.997H404.675L415.5 250.747Z" fill="#18232D"/>
<path d="M360.205 226V224.977L364.045 220.773C364.496 220.28 364.867 219.852 365.159 219.489C365.451 219.121 365.667 218.777 365.807 218.455C365.951 218.129 366.023 217.788 366.023 217.432C366.023 217.023 365.924 216.669 365.727 216.369C365.534 216.07 365.269 215.839 364.932 215.676C364.595 215.513 364.216 215.432 363.795 215.432C363.348 215.432 362.958 215.525 362.625 215.71C362.295 215.892 362.04 216.148 361.858 216.477C361.68 216.807 361.591 217.193 361.591 217.636H360.25C360.25 216.955 360.407 216.356 360.722 215.841C361.036 215.326 361.464 214.924 362.006 214.636C362.551 214.348 363.163 214.205 363.841 214.205C364.523 214.205 365.127 214.348 365.653 214.636C366.18 214.924 366.593 215.312 366.892 215.801C367.191 216.29 367.341 216.833 367.341 217.432C367.341 217.86 367.263 218.278 367.108 218.688C366.956 219.093 366.691 219.545 366.312 220.045C365.938 220.542 365.417 221.148 364.75 221.864L362.136 224.659V224.75H367.545V226H360.205ZM378.324 226.159C377.574 226.159 376.905 226.03 376.318 225.773C375.735 225.515 375.271 225.157 374.926 224.699C374.585 224.237 374.4 223.701 374.369 223.091H375.801C375.831 223.466 375.96 223.79 376.188 224.062C376.415 224.331 376.712 224.54 377.08 224.688C377.447 224.835 377.854 224.909 378.301 224.909C378.801 224.909 379.244 224.822 379.631 224.648C380.017 224.473 380.32 224.231 380.54 223.92C380.759 223.61 380.869 223.25 380.869 222.841C380.869 222.413 380.763 222.036 380.551 221.71C380.339 221.381 380.028 221.123 379.619 220.938C379.21 220.752 378.71 220.659 378.119 220.659H377.188V219.409H378.119C378.581 219.409 378.987 219.326 379.335 219.159C379.688 218.992 379.962 218.758 380.159 218.455C380.36 218.152 380.46 217.795 380.46 217.386C380.46 216.992 380.373 216.65 380.199 216.358C380.025 216.066 379.778 215.839 379.46 215.676C379.146 215.513 378.775 215.432 378.347 215.432C377.945 215.432 377.566 215.506 377.21 215.653C376.858 215.797 376.57 216.008 376.347 216.284C376.123 216.557 376.002 216.886 375.983 217.273H374.619C374.642 216.663 374.826 216.129 375.17 215.67C375.515 215.208 375.966 214.848 376.523 214.591C377.083 214.333 377.699 214.205 378.369 214.205C379.089 214.205 379.706 214.35 380.222 214.642C380.737 214.93 381.133 215.311 381.409 215.784C381.686 216.258 381.824 216.769 381.824 217.318C381.824 217.973 381.652 218.532 381.307 218.994C380.966 219.456 380.502 219.777 379.915 219.955V220.045C380.65 220.167 381.223 220.479 381.636 220.983C382.049 221.483 382.256 222.102 382.256 222.841C382.256 223.473 382.083 224.042 381.739 224.545C381.398 225.045 380.932 225.439 380.341 225.727C379.75 226.015 379.078 226.159 378.324 226.159ZM388.375 226.159C387.519 226.159 386.79 225.926 386.188 225.46C385.585 224.991 385.125 224.311 384.807 223.42C384.489 222.527 384.33 221.447 384.33 220.182C384.33 218.924 384.489 217.85 384.807 216.96C385.129 216.066 385.591 215.384 386.193 214.915C386.799 214.441 387.527 214.205 388.375 214.205C389.223 214.205 389.949 214.441 390.551 214.915C391.157 215.384 391.619 216.066 391.938 216.96C392.259 217.85 392.42 218.924 392.42 220.182C392.42 221.447 392.261 222.527 391.943 223.42C391.625 224.311 391.165 224.991 390.562 225.46C389.96 225.926 389.231 226.159 388.375 226.159ZM388.375 224.909C389.223 224.909 389.883 224.5 390.352 223.682C390.822 222.864 391.057 221.697 391.057 220.182C391.057 219.174 390.949 218.316 390.733 217.608C390.521 216.9 390.214 216.36 389.812 215.989C389.415 215.617 388.936 215.432 388.375 215.432C387.534 215.432 386.877 215.847 386.403 216.676C385.93 217.502 385.693 218.67 385.693 220.182C385.693 221.189 385.799 222.045 386.011 222.75C386.223 223.455 386.528 223.991 386.926 224.358C387.328 224.725 387.811 224.909 388.375 224.909ZM398.375 226.159C397.519 226.159 396.79 225.926 396.188 225.46C395.585 224.991 395.125 224.311 394.807 223.42C394.489 222.527 394.33 221.447 394.33 220.182C394.33 218.924 394.489 217.85 394.807 216.96C395.129 216.066 395.591 215.384 396.193 214.915C396.799 214.441 397.527 214.205 398.375 214.205C399.223 214.205 399.949 214.441 400.551 214.915C401.157 215.384 401.619 216.066 401.938 216.96C402.259 217.85 402.42 218.924 402.42 220.182C402.42 221.447 402.261 222.527 401.943 223.42C401.625 224.311 401.165 224.991 400.562 225.46C399.96 225.926 399.231 226.159 398.375 226.159ZM398.375 224.909C399.223 224.909 399.883 224.5 400.352 223.682C400.822 222.864 401.057 221.697 401.057 220.182C401.057 219.174 400.949 218.316 400.733 217.608C400.521 216.9 400.214 216.36 399.812 215.989C399.415 215.617 398.936 215.432 398.375 215.432C397.534 215.432 396.877 215.847 396.403 216.676C395.93 217.502 395.693 218.67 395.693 220.182C395.693 221.189 395.799 222.045 396.011 222.75C396.223 223.455 396.528 223.991 396.926 224.358C397.328 224.725 397.811 224.909 398.375 224.909ZM414.489 217.273V218.523H410.443V226H409.102V217.273H414.489ZM416.446 229.273V217.273H417.741V218.659H417.901C417.999 218.508 418.135 218.314 418.31 218.08C418.488 217.841 418.741 217.629 419.071 217.443C419.404 217.254 419.855 217.159 420.423 217.159C421.158 217.159 421.806 217.343 422.366 217.71C422.927 218.078 423.365 218.598 423.679 219.273C423.993 219.947 424.151 220.742 424.151 221.659C424.151 222.583 423.993 223.384 423.679 224.062C423.365 224.737 422.929 225.259 422.372 225.631C421.815 225.998 421.173 226.182 420.446 226.182C419.885 226.182 419.437 226.089 419.099 225.903C418.762 225.714 418.503 225.5 418.321 225.261C418.139 225.019 417.999 224.818 417.901 224.659H417.787V229.273H416.446ZM417.764 221.636C417.764 222.295 417.861 222.877 418.054 223.381C418.247 223.881 418.529 224.273 418.901 224.557C419.272 224.837 419.726 224.977 420.264 224.977C420.825 224.977 421.293 224.83 421.668 224.534C422.046 224.235 422.33 223.833 422.52 223.33C422.713 222.822 422.81 222.258 422.81 221.636C422.81 221.023 422.715 220.47 422.526 219.977C422.34 219.481 422.058 219.089 421.679 218.801C421.304 218.509 420.832 218.364 420.264 218.364C419.719 218.364 419.26 218.502 418.889 218.778C418.518 219.051 418.238 219.434 418.048 219.926C417.859 220.415 417.764 220.985 417.764 221.636ZM432.037 221.023V222.273H427.219V221.023H432.037ZM427.537 217.273V226H426.196V217.273H427.537ZM433.06 217.273V226H431.719V217.273H433.06ZM444.077 214.364V226H442.668V215.841H442.599L439.759 217.727V216.295L442.668 214.364H444.077ZM447.423 226V224.977L451.264 220.773C451.715 220.28 452.086 219.852 452.378 219.489C452.67 219.121 452.885 218.777 453.026 218.455C453.17 218.129 453.241 217.788 453.241 217.432C453.241 217.023 453.143 216.669 452.946 216.369C452.753 216.07 452.488 215.839 452.151 215.676C451.813 215.513 451.435 215.432 451.014 215.432C450.567 215.432 450.177 215.525 449.844 215.71C449.514 215.892 449.259 216.148 449.077 216.477C448.899 216.807 448.81 217.193 448.81 217.636H447.469C447.469 216.955 447.626 216.356 447.94 215.841C448.255 215.326 448.683 214.924 449.224 214.636C449.77 214.348 450.382 214.205 451.06 214.205C451.741 214.205 452.346 214.348 452.872 214.636C453.399 214.924 453.812 215.312 454.111 215.801C454.41 216.29 454.56 216.833 454.56 217.432C454.56 217.86 454.482 218.278 454.327 218.688C454.175 219.093 453.91 219.545 453.531 220.045C453.156 220.542 452.635 221.148 451.969 221.864L449.355 224.659V224.75H454.764V226H447.423ZM461.247 213.818L457.497 227.75H456.27L460.02 213.818H461.247ZM466.609 226.159C465.753 226.159 465.024 225.926 464.422 225.46C463.82 224.991 463.359 224.311 463.041 223.42C462.723 222.527 462.564 221.447 462.564 220.182C462.564 218.924 462.723 217.85 463.041 216.96C463.363 216.066 463.825 215.384 464.428 214.915C465.034 214.441 465.761 214.205 466.609 214.205C467.458 214.205 468.183 214.441 468.786 214.915C469.392 215.384 469.854 216.066 470.172 216.96C470.494 217.85 470.655 218.924 470.655 220.182C470.655 221.447 470.496 222.527 470.178 223.42C469.859 224.311 469.399 224.991 468.797 225.46C468.195 225.926 467.465 226.159 466.609 226.159ZM466.609 224.909C467.458 224.909 468.117 224.5 468.587 223.682C469.056 222.864 469.291 221.697 469.291 220.182C469.291 219.174 469.183 218.316 468.967 217.608C468.755 216.9 468.448 216.36 468.047 215.989C467.649 215.617 467.17 215.432 466.609 215.432C465.768 215.432 465.111 215.847 464.638 216.676C464.164 217.502 463.928 218.67 463.928 220.182C463.928 221.189 464.034 222.045 464.246 222.75C464.458 223.455 464.763 223.991 465.161 224.358C465.562 224.725 466.045 224.909 466.609 224.909ZM476.746 226.159C475.996 226.159 475.327 226.03 474.74 225.773C474.157 225.515 473.693 225.157 473.348 224.699C473.007 224.237 472.821 223.701 472.791 223.091H474.223C474.253 223.466 474.382 223.79 474.609 224.062C474.837 224.331 475.134 224.54 475.501 224.688C475.869 224.835 476.276 224.909 476.723 224.909C477.223 224.909 477.666 224.822 478.053 224.648C478.439 224.473 478.742 224.231 478.962 223.92C479.181 223.61 479.291 223.25 479.291 222.841C479.291 222.413 479.185 222.036 478.973 221.71C478.761 221.381 478.45 221.123 478.041 220.938C477.632 220.752 477.132 220.659 476.541 220.659H475.609V219.409H476.541C477.003 219.409 477.409 219.326 477.757 219.159C478.109 218.992 478.384 218.758 478.581 218.455C478.782 218.152 478.882 217.795 478.882 217.386C478.882 216.992 478.795 216.65 478.621 216.358C478.446 216.066 478.2 215.839 477.882 215.676C477.568 215.513 477.196 215.432 476.768 215.432C476.367 215.432 475.988 215.506 475.632 215.653C475.28 215.797 474.992 216.008 474.768 216.284C474.545 216.557 474.424 216.886 474.405 217.273H473.041C473.064 216.663 473.248 216.129 473.592 215.67C473.937 215.208 474.388 214.848 474.945 214.591C475.505 214.333 476.121 214.205 476.791 214.205C477.511 214.205 478.128 214.35 478.643 214.642C479.159 214.93 479.554 215.311 479.831 215.784C480.107 216.258 480.246 216.769 480.246 217.318C480.246 217.973 480.073 218.532 479.729 218.994C479.388 219.456 478.924 219.777 478.337 219.955V220.045C479.071 220.167 479.645 220.479 480.058 220.983C480.471 221.483 480.678 222.102 480.678 222.841C480.678 223.473 480.505 224.042 480.161 224.545C479.82 225.045 479.354 225.439 478.763 225.727C478.172 226.015 477.5 226.159 476.746 226.159ZM487.138 213.818L483.388 227.75H482.161L485.911 213.818H487.138ZM488.705 226V224.977L492.545 220.773C492.996 220.28 493.367 219.852 493.659 219.489C493.951 219.121 494.167 218.777 494.307 218.455C494.451 218.129 494.523 217.788 494.523 217.432C494.523 217.023 494.424 216.669 494.227 216.369C494.034 216.07 493.769 215.839 493.432 215.676C493.095 215.513 492.716 215.432 492.295 215.432C491.848 215.432 491.458 215.525 491.125 215.71C490.795 215.892 490.54 216.148 490.358 216.477C490.18 216.807 490.091 217.193 490.091 217.636H488.75C488.75 216.955 488.907 216.356 489.222 215.841C489.536 215.326 489.964 214.924 490.506 214.636C491.051 214.348 491.663 214.205 492.341 214.205C493.023 214.205 493.627 214.348 494.153 214.636C494.68 214.924 495.093 215.312 495.392 215.801C495.691 216.29 495.841 216.833 495.841 217.432C495.841 217.86 495.763 218.278 495.608 218.688C495.456 219.093 495.191 219.545 494.812 220.045C494.438 220.542 493.917 221.148 493.25 221.864L490.636 224.659V224.75H496.045V226H488.705ZM502.188 226.159C501.331 226.159 500.602 225.926 500 225.46C499.398 224.991 498.938 224.311 498.619 223.42C498.301 222.527 498.142 221.447 498.142 220.182C498.142 218.924 498.301 217.85 498.619 216.96C498.941 216.066 499.403 215.384 500.006 214.915C500.612 214.441 501.339 214.205 502.188 214.205C503.036 214.205 503.761 214.441 504.364 214.915C504.97 215.384 505.432 216.066 505.75 216.96C506.072 217.85 506.233 218.924 506.233 220.182C506.233 221.447 506.074 222.527 505.756 223.42C505.438 224.311 504.977 224.991 504.375 225.46C503.773 225.926 503.044 226.159 502.188 226.159ZM502.188 224.909C503.036 224.909 503.695 224.5 504.165 223.682C504.634 222.864 504.869 221.697 504.869 220.182C504.869 219.174 504.761 218.316 504.545 217.608C504.333 216.9 504.027 216.36 503.625 215.989C503.227 215.617 502.748 215.432 502.188 215.432C501.347 215.432 500.689 215.847 500.216 216.676C499.742 217.502 499.506 218.67 499.506 220.182C499.506 221.189 499.612 222.045 499.824 222.75C500.036 223.455 500.341 223.991 500.739 224.358C501.14 224.725 501.623 224.909 502.188 224.909ZM508.392 226V224.977L512.233 220.773C512.684 220.28 513.055 219.852 513.347 219.489C513.638 219.121 513.854 218.777 513.994 218.455C514.138 218.129 514.21 217.788 514.21 217.432C514.21 217.023 514.112 216.669 513.915 216.369C513.722 216.07 513.456 215.839 513.119 215.676C512.782 215.513 512.403 215.432 511.983 215.432C511.536 215.432 511.146 215.525 510.812 215.71C510.483 215.892 510.227 216.148 510.045 216.477C509.867 216.807 509.778 217.193 509.778 217.636H508.438C508.438 216.955 508.595 216.356 508.909 215.841C509.223 215.326 509.652 214.924 510.193 214.636C510.739 214.348 511.35 214.205 512.028 214.205C512.71 214.205 513.314 214.348 513.841 214.636C514.367 214.924 514.78 215.312 515.08 215.801C515.379 216.29 515.528 216.833 515.528 217.432C515.528 217.86 515.451 218.278 515.295 218.688C515.144 219.093 514.879 219.545 514.5 220.045C514.125 220.542 513.604 221.148 512.938 221.864L510.324 224.659V224.75H515.733V226H508.392ZM521.875 226.159C521.019 226.159 520.29 225.926 519.688 225.46C519.085 224.991 518.625 224.311 518.307 223.42C517.989 222.527 517.83 221.447 517.83 220.182C517.83 218.924 517.989 217.85 518.307 216.96C518.629 216.066 519.091 215.384 519.693 214.915C520.299 214.441 521.027 214.205 521.875 214.205C522.723 214.205 523.449 214.441 524.051 214.915C524.657 215.384 525.119 216.066 525.438 216.96C525.759 217.85 525.92 218.924 525.92 220.182C525.92 221.447 525.761 222.527 525.443 223.42C525.125 224.311 524.665 224.991 524.062 225.46C523.46 225.926 522.731 226.159 521.875 226.159ZM521.875 224.909C522.723 224.909 523.383 224.5 523.852 223.682C524.322 222.864 524.557 221.697 524.557 220.182C524.557 219.174 524.449 218.316 524.233 217.608C524.021 216.9 523.714 216.36 523.312 215.989C522.915 215.617 522.436 215.432 521.875 215.432C521.034 215.432 520.377 215.847 519.903 216.676C519.43 217.502 519.193 218.67 519.193 220.182C519.193 221.189 519.299 222.045 519.511 222.75C519.723 223.455 520.028 223.991 520.426 224.358C520.828 224.725 521.311 224.909 521.875 224.909Z" fill="white"/>
</svg>
