<svg width="350" height="385" viewBox="0 0 350 385" fill="none" xmlns="http://www.w3.org/2000/svg">
<rect width="350" height="368" rx="5" fill="black"/>
<rect x="4" y="5" width="342" height="358" rx="5" fill="white"/>
<path d="M19.5855 324.12V335.757H18.1764V325.598H18.1082L15.2673 327.484V326.052L18.1764 324.12H19.5855ZM31.2275 335.916C30.3715 335.916 29.6423 335.683 29.04 335.217C28.4378 334.747 27.9775 334.067 27.6594 333.177C27.3412 332.283 27.1821 331.204 27.1821 329.938C27.1821 328.681 27.3412 327.607 27.6594 326.717C27.9813 325.823 28.4434 325.141 29.0457 324.671C29.6518 324.198 30.3791 323.961 31.2275 323.961C32.076 323.961 32.8014 324.198 33.4037 324.671C34.0097 325.141 34.4719 325.823 34.79 326.717C35.112 327.607 35.273 328.681 35.273 329.938C35.273 331.204 35.1139 332.283 34.7957 333.177C34.4775 334.067 34.0173 334.747 33.415 335.217C32.8128 335.683 32.0836 335.916 31.2275 335.916ZM31.2275 334.666C32.076 334.666 32.7351 334.257 33.2048 333.438C33.6745 332.62 33.9094 331.454 33.9094 329.938C33.9094 328.931 33.8014 328.073 33.5855 327.365C33.3734 326.656 33.0666 326.116 32.665 325.745C32.2673 325.374 31.7881 325.188 31.2275 325.188C30.3866 325.188 29.7294 325.603 29.2559 326.433C28.7825 327.258 28.5457 328.427 28.5457 329.938C28.5457 330.946 28.6518 331.802 28.8639 332.507C29.076 333.211 29.3809 333.747 29.7787 334.115C30.1802 334.482 30.6631 334.666 31.2275 334.666ZM41.2275 335.916C40.3715 335.916 39.6423 335.683 39.04 335.217C38.4378 334.747 37.9775 334.067 37.6594 333.177C37.3412 332.283 37.1821 331.204 37.1821 329.938C37.1821 328.681 37.3412 327.607 37.6594 326.717C37.9813 325.823 38.4434 325.141 39.0457 324.671C39.6518 324.198 40.3791 323.961 41.2275 323.961C42.076 323.961 42.8014 324.198 43.4037 324.671C44.0097 325.141 44.4719 325.823 44.79 326.717C45.112 327.607 45.273 328.681 45.273 329.938C45.273 331.204 45.1139 332.283 44.7957 333.177C44.4775 334.067 44.0173 334.747 43.415 335.217C42.8128 335.683 42.0836 335.916 41.2275 335.916ZM41.2275 334.666C42.076 334.666 42.7351 334.257 43.2048 333.438C43.6745 332.62 43.9094 331.454 43.9094 329.938C43.9094 328.931 43.8014 328.073 43.5855 327.365C43.3734 326.656 43.0666 326.116 42.665 325.745C42.2673 325.374 41.7881 325.188 41.2275 325.188C40.3866 325.188 39.7294 325.603 39.2559 326.433C38.7825 327.258 38.5457 328.427 38.5457 329.938C38.5457 330.946 38.6518 331.802 38.8639 332.507C39.076 333.211 39.3809 333.747 39.7787 334.115C40.1802 334.482 40.6631 334.666 41.2275 334.666ZM51.2275 335.916C50.3715 335.916 49.6423 335.683 49.04 335.217C48.4378 334.747 47.9775 334.067 47.6594 333.177C47.3412 332.283 47.1821 331.204 47.1821 329.938C47.1821 328.681 47.3412 327.607 47.6594 326.717C47.9813 325.823 48.4434 325.141 49.0457 324.671C49.6518 324.198 50.3791 323.961 51.2275 323.961C52.076 323.961 52.8014 324.198 53.4037 324.671C54.0097 325.141 54.4719 325.823 54.79 326.717C55.112 327.607 55.273 328.681 55.273 329.938C55.273 331.204 55.1139 332.283 54.7957 333.177C54.4775 334.067 54.0173 334.747 53.415 335.217C52.8128 335.683 52.0836 335.916 51.2275 335.916ZM51.2275 334.666C52.076 334.666 52.7351 334.257 53.2048 333.438C53.6745 332.62 53.9094 331.454 53.9094 329.938C53.9094 328.931 53.8014 328.073 53.5855 327.365C53.3734 326.656 53.0666 326.116 52.665 325.745C52.2673 325.374 51.7881 325.188 51.2275 325.188C50.3866 325.188 49.7294 325.603 49.2559 326.433C48.7825 327.258 48.5457 328.427 48.5457 329.938C48.5457 330.946 48.6518 331.802 48.8639 332.507C49.076 333.211 49.3809 333.747 49.7787 334.115C50.1802 334.482 50.6631 334.666 51.2275 334.666Z" fill="black"/>
<path d="M15.4946 245.757V244.734L19.3355 240.529C19.7863 240.037 20.1575 239.609 20.4491 239.245C20.7408 238.878 20.9567 238.533 21.0969 238.211C21.2408 237.885 21.3128 237.544 21.3128 237.188C21.3128 236.779 21.2143 236.425 21.0173 236.126C20.8241 235.827 20.559 235.596 20.2219 235.433C19.8847 235.27 19.5059 235.188 19.0855 235.188C18.6385 235.188 18.2484 235.281 17.915 235.467C17.5855 235.649 17.3298 235.904 17.148 236.234C16.97 236.563 16.8809 236.95 16.8809 237.393H15.54C15.54 236.711 15.6972 236.113 16.0116 235.598C16.326 235.082 16.7541 234.681 17.2957 234.393C17.8412 234.105 18.4529 233.961 19.1309 233.961C19.8128 233.961 20.4169 234.105 20.9434 234.393C21.47 234.681 21.8828 235.069 22.1821 235.558C22.4813 236.046 22.6309 236.59 22.6309 237.188C22.6309 237.616 22.5533 238.035 22.398 238.444C22.2465 238.849 21.9813 239.302 21.6025 239.802C21.2275 240.298 20.7067 240.904 20.04 241.62L17.4264 244.416V244.507H22.8355V245.757H15.4946ZM33.4775 245.916C32.6215 245.916 31.8923 245.683 31.29 245.217C30.6878 244.747 30.2275 244.067 29.9094 243.177C29.5912 242.283 29.4321 241.204 29.4321 239.938C29.4321 238.681 29.5912 237.607 29.9094 236.717C30.2313 235.823 30.6934 235.141 31.2957 234.671C31.9018 234.198 32.6291 233.961 33.4775 233.961C34.326 233.961 35.0514 234.198 35.6537 234.671C36.2597 235.141 36.7219 235.823 37.04 236.717C37.362 237.607 37.523 238.681 37.523 239.938C37.523 241.204 37.3639 242.283 37.0457 243.177C36.7275 244.067 36.2673 244.747 35.665 245.217C35.0628 245.683 34.3336 245.916 33.4775 245.916ZM33.4775 244.666C34.326 244.666 34.9851 244.257 35.4548 243.438C35.9245 242.62 36.1594 241.454 36.1594 239.938C36.1594 238.931 36.0514 238.073 35.8355 237.365C35.6234 236.656 35.3166 236.116 34.915 235.745C34.5173 235.374 34.0381 235.188 33.4775 235.188C32.6366 235.188 31.9794 235.603 31.5059 236.433C31.0325 237.258 30.7957 238.427 30.7957 239.938C30.7957 240.946 30.9018 241.802 31.1139 242.507C31.326 243.211 31.6309 243.747 32.0287 244.115C32.4302 244.482 32.9131 244.666 33.4775 244.666ZM43.4775 245.916C42.6215 245.916 41.8923 245.683 41.29 245.217C40.6878 244.747 40.2275 244.067 39.9094 243.177C39.5912 242.283 39.4321 241.204 39.4321 239.938C39.4321 238.681 39.5912 237.607 39.9094 236.717C40.2313 235.823 40.6934 235.141 41.2957 234.671C41.9018 234.198 42.6291 233.961 43.4775 233.961C44.326 233.961 45.0514 234.198 45.6537 234.671C46.2597 235.141 46.7219 235.823 47.04 236.717C47.362 237.607 47.523 238.681 47.523 239.938C47.523 241.204 47.3639 242.283 47.0457 243.177C46.7275 244.067 46.2673 244.747 45.665 245.217C45.0628 245.683 44.3336 245.916 43.4775 245.916ZM43.4775 244.666C44.326 244.666 44.9851 244.257 45.4548 243.438C45.9245 242.62 46.1594 241.454 46.1594 239.938C46.1594 238.931 46.0514 238.073 45.8355 237.365C45.6234 236.656 45.3166 236.116 44.915 235.745C44.5173 235.374 44.0381 235.188 43.4775 235.188C42.6366 235.188 41.9794 235.603 41.5059 236.433C41.0325 237.258 40.7957 238.427 40.7957 239.938C40.7957 240.946 40.9018 241.802 41.1139 242.507C41.326 243.211 41.6309 243.747 42.0287 244.115C42.4302 244.482 42.9131 244.666 43.4775 244.666ZM53.4775 245.916C52.6215 245.916 51.8923 245.683 51.29 245.217C50.6878 244.747 50.2275 244.067 49.9094 243.177C49.5912 242.283 49.4321 241.204 49.4321 239.938C49.4321 238.681 49.5912 237.607 49.9094 236.717C50.2313 235.823 50.6934 235.141 51.2957 234.671C51.9018 234.198 52.6291 233.961 53.4775 233.961C54.326 233.961 55.0514 234.198 55.6537 234.671C56.2597 235.141 56.7219 235.823 57.04 236.717C57.362 237.607 57.523 238.681 57.523 239.938C57.523 241.204 57.3639 242.283 57.0457 243.177C56.7275 244.067 56.2673 244.747 55.665 245.217C55.0628 245.683 54.3336 245.916 53.4775 245.916ZM53.4775 244.666C54.326 244.666 54.9851 244.257 55.4548 243.438C55.9245 242.62 56.1594 241.454 56.1594 239.938C56.1594 238.931 56.0514 238.073 55.8355 237.365C55.6234 236.656 55.3166 236.116 54.915 235.745C54.5173 235.374 54.0381 235.188 53.4775 235.188C52.6366 235.188 51.9794 235.603 51.5059 236.433C51.0325 237.258 50.7957 238.427 50.7957 239.938C50.7957 240.946 50.9018 241.802 51.1139 242.507C51.326 243.211 51.6309 243.747 52.0287 244.115C52.4302 244.482 52.9131 244.666 53.4775 244.666Z" fill="black"/>
<path d="M19.4264 155.916C18.6764 155.916 18.0078 155.787 17.4207 155.529C16.8374 155.272 16.3734 154.914 16.0287 154.455C15.6878 153.993 15.5022 153.457 15.4719 152.848H16.9037C16.934 153.223 17.0628 153.546 17.29 153.819C17.5173 154.088 17.8147 154.296 18.1821 154.444C18.5495 154.592 18.9567 154.666 19.4037 154.666C19.9037 154.666 20.3469 154.579 20.7332 154.404C21.1196 154.23 21.4226 153.988 21.6423 153.677C21.862 153.366 21.9719 153.007 21.9719 152.598C21.9719 152.169 21.8658 151.793 21.6537 151.467C21.4416 151.137 21.1309 150.88 20.7219 150.694C20.3128 150.508 19.8128 150.416 19.2219 150.416H18.29V149.166H19.2219C19.684 149.166 20.0893 149.082 20.4378 148.916C20.79 148.749 21.0647 148.514 21.2616 148.211C21.4624 147.908 21.5628 147.552 21.5628 147.143C21.5628 146.749 21.4756 146.406 21.3014 146.115C21.1272 145.823 20.8809 145.596 20.5628 145.433C20.2484 145.27 19.8772 145.188 19.4491 145.188C19.0476 145.188 18.6688 145.262 18.3128 145.41C17.9605 145.554 17.6726 145.764 17.4491 146.041C17.2256 146.313 17.1044 146.643 17.0855 147.029H15.7219C15.7446 146.419 15.9283 145.885 16.273 145.427C16.6177 144.965 17.0684 144.605 17.6253 144.348C18.1859 144.09 18.8014 143.961 19.4719 143.961C20.1916 143.961 20.809 144.107 21.3241 144.399C21.8393 144.687 22.2351 145.067 22.5116 145.541C22.7881 146.014 22.9264 146.526 22.9264 147.075C22.9264 147.73 22.7541 148.289 22.4094 148.751C22.0684 149.213 21.6044 149.533 21.0173 149.711V149.802C21.7522 149.923 22.326 150.236 22.7389 150.74C23.1518 151.24 23.3582 151.859 23.3582 152.598C23.3582 153.23 23.1859 153.798 22.8412 154.302C22.5003 154.802 22.0344 155.196 21.4434 155.484C20.8525 155.772 20.1802 155.916 19.4264 155.916ZM33.9775 155.916C33.1215 155.916 32.3923 155.683 31.79 155.217C31.1878 154.747 30.7275 154.067 30.4094 153.177C30.0912 152.283 29.9321 151.204 29.9321 149.938C29.9321 148.681 30.0912 147.607 30.4094 146.717C30.7313 145.823 31.1934 145.141 31.7957 144.671C32.4018 144.198 33.1291 143.961 33.9775 143.961C34.826 143.961 35.5514 144.198 36.1537 144.671C36.7597 145.141 37.2219 145.823 37.54 146.717C37.862 147.607 38.023 148.681 38.023 149.938C38.023 151.204 37.8639 152.283 37.5457 153.177C37.2275 154.067 36.7673 154.747 36.165 155.217C35.5628 155.683 34.8336 155.916 33.9775 155.916ZM33.9775 154.666C34.826 154.666 35.4851 154.257 35.9548 153.438C36.4245 152.62 36.6594 151.454 36.6594 149.938C36.6594 148.931 36.5514 148.073 36.3355 147.365C36.1234 146.656 35.8166 146.116 35.415 145.745C35.0173 145.374 34.5381 145.188 33.9775 145.188C33.1366 145.188 32.4794 145.603 32.0059 146.433C31.5325 147.258 31.2957 148.427 31.2957 149.938C31.2957 150.946 31.4018 151.802 31.6139 152.507C31.826 153.211 32.1309 153.747 32.5287 154.115C32.9302 154.482 33.4131 154.666 33.9775 154.666ZM43.9775 155.916C43.1215 155.916 42.3923 155.683 41.79 155.217C41.1878 154.747 40.7275 154.067 40.4094 153.177C40.0912 152.283 39.9321 151.204 39.9321 149.938C39.9321 148.681 40.0912 147.607 40.4094 146.717C40.7313 145.823 41.1934 145.141 41.7957 144.671C42.4018 144.198 43.1291 143.961 43.9775 143.961C44.826 143.961 45.5514 144.198 46.1537 144.671C46.7597 145.141 47.2219 145.823 47.54 146.717C47.862 147.607 48.023 148.681 48.023 149.938C48.023 151.204 47.8639 152.283 47.5457 153.177C47.2275 154.067 46.7673 154.747 46.165 155.217C45.5628 155.683 44.8336 155.916 43.9775 155.916ZM43.9775 154.666C44.826 154.666 45.4851 154.257 45.9548 153.438C46.4245 152.62 46.6594 151.454 46.6594 149.938C46.6594 148.931 46.5514 148.073 46.3355 147.365C46.1234 146.656 45.8166 146.116 45.415 145.745C45.0173 145.374 44.5381 145.188 43.9775 145.188C43.1366 145.188 42.4794 145.603 42.0059 146.433C41.5325 147.258 41.2957 148.427 41.2957 149.938C41.2957 150.946 41.4018 151.802 41.6139 152.507C41.826 153.211 42.1309 153.747 42.5287 154.115C42.9302 154.482 43.4131 154.666 43.9775 154.666ZM53.9775 155.916C53.1215 155.916 52.3923 155.683 51.79 155.217C51.1878 154.747 50.7275 154.067 50.4094 153.177C50.0912 152.283 49.9321 151.204 49.9321 149.938C49.9321 148.681 50.0912 147.607 50.4094 146.717C50.7313 145.823 51.1934 145.141 51.7957 144.671C52.4018 144.198 53.1291 143.961 53.9775 143.961C54.826 143.961 55.5514 144.198 56.1537 144.671C56.7597 145.141 57.2219 145.823 57.54 146.717C57.862 147.607 58.023 148.681 58.023 149.938C58.023 151.204 57.8639 152.283 57.5457 153.177C57.2275 154.067 56.7673 154.747 56.165 155.217C55.5628 155.683 54.8336 155.916 53.9775 155.916ZM53.9775 154.666C54.826 154.666 55.4851 154.257 55.9548 153.438C56.4245 152.62 56.6594 151.454 56.6594 149.938C56.6594 148.931 56.5514 148.073 56.3355 147.365C56.1234 146.656 55.8166 146.116 55.415 145.745C55.0173 145.374 54.5381 145.188 53.9775 145.188C53.1366 145.188 52.4794 145.603 52.0059 146.433C51.5325 147.258 51.2957 148.427 51.2957 149.938C51.2957 150.946 51.4018 151.802 51.6139 152.507C51.826 153.211 52.1309 153.747 52.5287 154.115C52.9302 154.482 53.4131 154.666 53.9775 154.666Z" fill="black"/>
<path d="M15.2219 63.3702V62.2111L20.3355 54.1202H21.1764V55.9157H20.6082L16.7446 62.0293V62.1202H23.6309V63.3702H15.2219ZM20.6991 65.7566V63.018V62.4782V54.1202H22.04V65.7566H20.6991ZM34.0557 65.9157C33.1996 65.9157 32.4704 65.6827 31.8682 65.2168C31.2659 64.7471 30.8057 64.0672 30.4875 63.177C30.1693 62.2831 30.0102 61.2036 30.0102 59.9384C30.0102 58.6808 30.1693 57.607 30.4875 56.7168C30.8095 55.8229 31.2716 55.1411 31.8738 54.6714C32.4799 54.1979 33.2072 53.9611 34.0557 53.9611C34.9041 53.9611 35.6295 54.1979 36.2318 54.6714C36.8379 55.1411 37.3 55.8229 37.6182 56.7168C37.9401 57.607 38.1011 58.6808 38.1011 59.9384C38.1011 61.2036 37.942 62.2831 37.6238 63.177C37.3057 64.0672 36.8454 64.7471 36.2432 65.2168C35.6409 65.6827 34.9117 65.9157 34.0557 65.9157ZM34.0557 64.6657C34.9041 64.6657 35.5632 64.2566 36.0329 63.4384C36.5026 62.6202 36.7375 61.4536 36.7375 59.9384C36.7375 58.9308 36.6295 58.0729 36.4136 57.3645C36.2015 56.6562 35.8947 56.1164 35.4932 55.7452C35.0954 55.374 34.6163 55.1884 34.0557 55.1884C33.2148 55.1884 32.5576 55.6032 32.0841 56.4327C31.6106 57.2585 31.3738 58.427 31.3738 59.9384C31.3738 60.946 31.4799 61.802 31.692 62.5066C31.9041 63.2111 32.2091 63.7471 32.6068 64.1145C33.0083 64.482 33.4913 64.6657 34.0557 64.6657ZM44.0557 65.9157C43.1996 65.9157 42.4704 65.6827 41.8682 65.2168C41.2659 64.7471 40.8057 64.0672 40.4875 63.177C40.1693 62.2831 40.0102 61.2036 40.0102 59.9384C40.0102 58.6808 40.1693 57.607 40.4875 56.7168C40.8095 55.8229 41.2716 55.1411 41.8738 54.6714C42.4799 54.1979 43.2072 53.9611 44.0557 53.9611C44.9041 53.9611 45.6295 54.1979 46.2318 54.6714C46.8379 55.1411 47.3 55.8229 47.6182 56.7168C47.9401 57.607 48.1011 58.6808 48.1011 59.9384C48.1011 61.2036 47.942 62.2831 47.6238 63.177C47.3057 64.0672 46.8454 64.7471 46.2432 65.2168C45.6409 65.6827 44.9117 65.9157 44.0557 65.9157ZM44.0557 64.6657C44.9041 64.6657 45.5632 64.2566 46.0329 63.4384C46.5026 62.6202 46.7375 61.4536 46.7375 59.9384C46.7375 58.9308 46.6295 58.0729 46.4136 57.3645C46.2015 56.6562 45.8947 56.1164 45.4932 55.7452C45.0954 55.374 44.6163 55.1884 44.0557 55.1884C43.2148 55.1884 42.5576 55.6032 42.0841 56.4327C41.6106 57.2585 41.3738 58.427 41.3738 59.9384C41.3738 60.946 41.4799 61.802 41.692 62.5066C41.9041 63.2111 42.2091 63.7471 42.6068 64.1145C43.0083 64.482 43.4913 64.6657 44.0557 64.6657ZM54.0557 65.9157C53.1996 65.9157 52.4704 65.6827 51.8682 65.2168C51.2659 64.7471 50.8057 64.0672 50.4875 63.177C50.1693 62.2831 50.0102 61.2036 50.0102 59.9384C50.0102 58.6808 50.1693 57.607 50.4875 56.7168C50.8095 55.8229 51.2716 55.1411 51.8738 54.6714C52.4799 54.1979 53.2072 53.9611 54.0557 53.9611C54.9041 53.9611 55.6295 54.1979 56.2318 54.6714C56.8379 55.1411 57.3 55.8229 57.6182 56.7168C57.9401 57.607 58.1011 58.6808 58.1011 59.9384C58.1011 61.2036 57.942 62.2831 57.6238 63.177C57.3057 64.0672 56.8454 64.7471 56.2432 65.2168C55.6409 65.6827 54.9117 65.9157 54.0557 65.9157ZM54.0557 64.6657C54.9041 64.6657 55.5632 64.2566 56.0329 63.4384C56.5026 62.6202 56.7375 61.4536 56.7375 59.9384C56.7375 58.9308 56.6295 58.0729 56.4136 57.3645C56.2015 56.6562 55.8947 56.1164 55.4932 55.7452C55.0954 55.374 54.6163 55.1884 54.0557 55.1884C53.2148 55.1884 52.5576 55.6032 52.0841 56.4327C51.6106 57.2585 51.3738 58.427 51.3738 59.9384C51.3738 60.946 51.4799 61.802 51.692 62.5066C51.9041 63.2111 52.2091 63.7471 52.6068 64.1145C53.0083 64.482 53.4913 64.6657 54.0557 64.6657Z" fill="black"/>
<line x1="10.1094" y1="344.257" x2="340.456" y2="344.257" stroke="black" stroke-opacity="0.3"/>
<line x1="10.1094" y1="254.257" x2="340.456" y2="254.257" stroke="black" stroke-opacity="0.3"/>
<line x1="10.1094" y1="164.257" x2="340.456" y2="164.257" stroke="black" stroke-opacity="0.3"/>
<line x1="10.1094" y1="74.2566" x2="340.456" y2="74.2565" stroke="black" stroke-opacity="0.3"/>
<path d="M16.744 317.021L98.5494 281.504L128.03 317.021L175.073 238.504L237.169 213.004L277.731 121.503L318.084 78.5034L340.4 105.021" stroke="black" stroke-width="2"/>
<rect x="80" y="180.513" width="144" height="29" rx="5" fill="#18232D"/>
<path d="M174.237 225.504L178.763 206.754H169.71L174.237 225.504Z" fill="#18232D"/>
<path d="M89.9034 198.757V197.99L92.7841 194.836C93.1222 194.467 93.4006 194.146 93.6193 193.873C93.8381 193.598 94 193.339 94.1051 193.098C94.2131 192.853 94.267 192.598 94.267 192.33C94.267 192.024 94.1932 191.758 94.0455 191.534C93.9006 191.309 93.7017 191.136 93.4489 191.014C93.196 190.892 92.9119 190.83 92.5966 190.83C92.2614 190.83 91.9688 190.9 91.7188 191.039C91.4716 191.176 91.2798 191.367 91.1435 191.615C91.0099 191.862 90.9432 192.151 90.9432 192.484H89.9375C89.9375 191.973 90.0554 191.524 90.2912 191.137C90.527 190.751 90.848 190.45 91.2543 190.234C91.6634 190.018 92.1222 189.91 92.6307 189.91C93.142 189.91 93.5952 190.018 93.9901 190.234C94.3849 190.45 94.6946 190.741 94.919 191.107C95.1435 191.474 95.2557 191.882 95.2557 192.33C95.2557 192.651 95.1974 192.965 95.081 193.272C94.9673 193.576 94.7685 193.916 94.4844 194.291C94.2031 194.663 93.8125 195.117 93.3125 195.654L91.3523 197.751V197.819H95.4091V198.757H89.9034ZM103.493 198.876C102.93 198.876 102.429 198.779 101.989 198.586C101.551 198.393 101.203 198.124 100.945 197.781C100.689 197.434 100.55 197.032 100.527 196.575H101.601C101.624 196.856 101.72 197.099 101.891 197.303C102.061 197.505 102.284 197.661 102.56 197.772C102.835 197.883 103.141 197.938 103.476 197.938C103.851 197.938 104.183 197.873 104.473 197.742C104.763 197.612 104.99 197.43 105.155 197.197C105.32 196.964 105.402 196.694 105.402 196.387C105.402 196.066 105.322 195.784 105.163 195.539C105.004 195.292 104.771 195.099 104.464 194.96C104.158 194.821 103.783 194.751 103.339 194.751H102.641V193.813H103.339C103.686 193.813 103.99 193.751 104.251 193.626C104.516 193.501 104.722 193.325 104.869 193.098C105.02 192.87 105.095 192.603 105.095 192.296C105.095 192.001 105.03 191.744 104.899 191.525C104.768 191.306 104.584 191.136 104.345 191.014C104.109 190.892 103.831 190.83 103.51 190.83C103.209 190.83 102.925 190.886 102.658 190.997C102.393 191.105 102.178 191.262 102.01 191.47C101.842 191.674 101.751 191.921 101.737 192.211H100.714C100.732 191.754 100.869 191.353 101.128 191.009C101.386 190.663 101.724 190.393 102.142 190.2C102.563 190.007 103.024 189.91 103.527 189.91C104.067 189.91 104.53 190.019 104.916 190.238C105.303 190.454 105.599 190.74 105.807 191.095C106.014 191.45 106.118 191.833 106.118 192.245C106.118 192.737 105.989 193.156 105.73 193.502C105.474 193.849 105.126 194.089 104.686 194.223V194.291C105.237 194.382 105.668 194.616 105.977 194.994C106.287 195.369 106.442 195.833 106.442 196.387C106.442 196.862 106.313 197.288 106.054 197.666C105.798 198.041 105.449 198.336 105.006 198.552C104.563 198.768 104.058 198.876 103.493 198.876ZM111.031 198.876C110.389 198.876 109.842 198.701 109.391 198.352C108.939 197.999 108.594 197.49 108.355 196.822C108.116 196.151 107.997 195.342 107.997 194.393C107.997 193.45 108.116 192.644 108.355 191.977C108.597 191.306 108.943 190.795 109.395 190.443C109.849 190.088 110.395 189.91 111.031 189.91C111.668 189.91 112.212 190.088 112.663 190.443C113.118 190.795 113.464 191.306 113.703 191.977C113.945 192.644 114.065 193.45 114.065 194.393C114.065 195.342 113.946 196.151 113.707 196.822C113.469 197.49 113.124 197.999 112.672 198.352C112.22 198.701 111.673 198.876 111.031 198.876ZM111.031 197.938C111.668 197.938 112.162 197.632 112.514 197.018C112.866 196.404 113.043 195.529 113.043 194.393C113.043 193.637 112.962 192.994 112.8 192.463C112.641 191.931 112.411 191.526 112.109 191.248C111.811 190.97 111.452 190.83 111.031 190.83C110.401 190.83 109.908 191.142 109.553 191.764C109.197 192.383 109.02 193.259 109.02 194.393C109.02 195.149 109.099 195.791 109.259 196.319C109.418 196.848 109.646 197.249 109.945 197.525C110.246 197.801 110.608 197.938 111.031 197.938ZM118.531 198.876C117.889 198.876 117.342 198.701 116.891 198.352C116.439 197.999 116.094 197.49 115.855 196.822C115.616 196.151 115.497 195.342 115.497 194.393C115.497 193.45 115.616 192.644 115.855 191.977C116.097 191.306 116.443 190.795 116.895 190.443C117.349 190.088 117.895 189.91 118.531 189.91C119.168 189.91 119.712 190.088 120.163 190.443C120.618 190.795 120.964 191.306 121.203 191.977C121.445 192.644 121.565 193.45 121.565 194.393C121.565 195.342 121.446 196.151 121.207 196.822C120.969 197.49 120.624 197.999 120.172 198.352C119.72 198.701 119.173 198.876 118.531 198.876ZM118.531 197.938C119.168 197.938 119.662 197.632 120.014 197.018C120.366 196.404 120.543 195.529 120.543 194.393C120.543 193.637 120.462 192.994 120.3 192.463C120.141 191.931 119.911 191.526 119.609 191.248C119.311 190.97 118.952 190.83 118.531 190.83C117.901 190.83 117.408 191.142 117.053 191.764C116.697 192.383 116.52 193.259 116.52 194.393C116.52 195.149 116.599 195.791 116.759 196.319C116.918 196.848 117.146 197.249 117.445 197.525C117.746 197.801 118.108 197.938 118.531 197.938ZM130.616 192.211V193.149H127.582V198.757H126.577V192.211H130.616ZM132.085 201.211V192.211H133.056V193.251H133.175C133.249 193.137 133.352 192.992 133.482 192.816C133.616 192.637 133.806 192.478 134.053 192.339C134.303 192.197 134.641 192.126 135.067 192.126C135.619 192.126 136.104 192.264 136.525 192.539C136.945 192.815 137.273 193.205 137.509 193.711C137.745 194.217 137.863 194.813 137.863 195.501C137.863 196.194 137.745 196.795 137.509 197.303C137.273 197.809 136.947 198.201 136.529 198.48C136.112 198.755 135.63 198.893 135.085 198.893C134.664 198.893 134.327 198.823 134.075 198.684C133.822 198.542 133.627 198.382 133.491 198.203C133.354 198.021 133.249 197.87 133.175 197.751H133.09V201.211H132.085ZM133.073 195.484C133.073 195.978 133.146 196.414 133.29 196.792C133.435 197.167 133.647 197.461 133.925 197.674C134.204 197.884 134.545 197.99 134.948 197.99C135.369 197.99 135.719 197.879 136.001 197.657C136.285 197.433 136.498 197.132 136.64 196.754C136.785 196.373 136.857 195.95 136.857 195.484C136.857 195.024 136.786 194.609 136.644 194.24C136.505 193.867 136.293 193.573 136.009 193.357C135.728 193.139 135.374 193.029 134.948 193.029C134.539 193.029 134.195 193.133 133.917 193.34C133.638 193.545 133.428 193.832 133.286 194.201C133.144 194.568 133.073 194.995 133.073 195.484ZM143.778 195.024V195.961H140.164V195.024H143.778ZM140.403 192.211V198.757H139.397V192.211H140.403ZM144.545 192.211V198.757H143.539V192.211H144.545ZM152.808 190.029V198.757H151.751V191.137H151.7L149.569 192.552V191.478L151.751 190.029H152.808ZM155.317 198.757V197.99L158.198 194.836C158.536 194.467 158.815 194.146 159.033 193.873C159.252 193.598 159.414 193.339 159.519 193.098C159.627 192.853 159.681 192.598 159.681 192.33C159.681 192.024 159.607 191.758 159.46 191.534C159.315 191.309 159.116 191.136 158.863 191.014C158.61 190.892 158.326 190.83 158.011 190.83C157.675 190.83 157.383 190.9 157.133 191.039C156.886 191.176 156.694 191.367 156.558 191.615C156.424 191.862 156.357 192.151 156.357 192.484H155.352C155.352 191.973 155.469 191.524 155.705 191.137C155.941 190.751 156.262 190.45 156.668 190.234C157.077 190.018 157.536 189.91 158.045 189.91C158.556 189.91 159.009 190.018 159.404 190.234C159.799 190.45 160.109 190.741 160.333 191.107C160.558 191.474 160.67 191.882 160.67 192.33C160.67 192.651 160.612 192.965 160.495 193.272C160.381 193.576 160.183 193.916 159.898 194.291C159.617 194.663 159.227 195.117 158.727 195.654L156.766 197.751V197.819H160.823V198.757H155.317ZM165.685 189.62L162.873 200.069H161.952L164.765 189.62H165.685ZM169.707 198.876C169.065 198.876 168.518 198.701 168.066 198.352C167.615 197.999 167.27 197.49 167.031 196.822C166.792 196.151 166.673 195.342 166.673 194.393C166.673 193.45 166.792 192.644 167.031 191.977C167.272 191.306 167.619 190.795 168.071 190.443C168.525 190.088 169.071 189.91 169.707 189.91C170.343 189.91 170.887 190.088 171.339 190.443C171.794 190.795 172.14 191.306 172.379 191.977C172.62 192.644 172.741 193.45 172.741 194.393C172.741 195.342 172.622 196.151 172.383 196.822C172.145 197.49 171.799 197.999 171.348 198.352C170.896 198.701 170.349 198.876 169.707 198.876ZM169.707 197.938C170.343 197.938 170.838 197.632 171.19 197.018C171.542 196.404 171.718 195.529 171.718 194.393C171.718 193.637 171.637 192.994 171.475 192.463C171.316 191.931 171.086 191.526 170.785 191.248C170.487 190.97 170.127 190.83 169.707 190.83C169.076 190.83 168.583 191.142 168.228 191.764C167.873 192.383 167.696 193.259 167.696 194.393C167.696 195.149 167.775 195.791 167.934 196.319C168.093 196.848 168.322 197.249 168.62 197.525C168.922 197.801 169.284 197.938 169.707 197.938ZM177.309 198.876C176.747 198.876 176.245 198.779 175.805 198.586C175.368 198.393 175.02 198.124 174.761 197.781C174.505 197.434 174.366 197.032 174.343 196.575H175.417C175.44 196.856 175.537 197.099 175.707 197.303C175.877 197.505 176.1 197.661 176.376 197.772C176.652 197.883 176.957 197.938 177.292 197.938C177.667 197.938 178 197.873 178.289 197.742C178.579 197.612 178.806 197.43 178.971 197.197C179.136 196.964 179.218 196.694 179.218 196.387C179.218 196.066 179.139 195.784 178.98 195.539C178.821 195.292 178.588 195.099 178.281 194.96C177.974 194.821 177.599 194.751 177.156 194.751H176.457V193.813H177.156C177.502 193.813 177.806 193.751 178.068 193.626C178.332 193.501 178.538 193.325 178.686 193.098C178.836 192.87 178.912 192.603 178.912 192.296C178.912 192.001 178.846 191.744 178.716 191.525C178.585 191.306 178.4 191.136 178.162 191.014C177.926 190.892 177.647 190.83 177.326 190.83C177.025 190.83 176.741 190.886 176.474 190.997C176.21 191.105 175.994 191.262 175.826 191.47C175.659 191.674 175.568 191.921 175.554 192.211H174.531C174.548 191.754 174.686 191.353 174.944 191.009C175.203 190.663 175.541 190.393 175.958 190.2C176.379 190.007 176.841 189.91 177.343 189.91C177.883 189.91 178.346 190.019 178.733 190.238C179.119 190.454 179.416 190.74 179.623 191.095C179.831 191.45 179.934 191.833 179.934 192.245C179.934 192.737 179.805 193.156 179.547 193.502C179.291 193.849 178.943 194.089 178.502 194.223V194.291C179.054 194.382 179.484 194.616 179.794 194.994C180.103 195.369 180.258 195.833 180.258 196.387C180.258 196.862 180.129 197.288 179.87 197.666C179.615 198.041 179.265 198.336 178.822 198.552C178.379 198.768 177.875 198.876 177.309 198.876ZM185.103 189.62L182.291 200.069H181.37L184.183 189.62H185.103ZM186.278 198.757V197.99L189.159 194.836C189.497 194.467 189.776 194.146 189.994 193.873C190.213 193.598 190.375 193.339 190.48 193.098C190.588 192.853 190.642 192.598 190.642 192.33C190.642 192.024 190.568 191.758 190.42 191.534C190.276 191.309 190.077 191.136 189.824 191.014C189.571 190.892 189.287 190.83 188.972 190.83C188.636 190.83 188.344 190.9 188.094 191.039C187.847 191.176 187.655 191.367 187.518 191.615C187.385 191.862 187.318 192.151 187.318 192.484H186.312C186.312 191.973 186.43 191.524 186.666 191.137C186.902 190.751 187.223 190.45 187.629 190.234C188.038 190.018 188.497 189.91 189.006 189.91C189.517 189.91 189.97 190.018 190.365 190.234C190.76 190.45 191.07 190.741 191.294 191.107C191.518 191.474 191.631 191.882 191.631 192.33C191.631 192.651 191.572 192.965 191.456 193.272C191.342 193.576 191.143 193.916 190.859 194.291C190.578 194.663 190.188 195.117 189.688 195.654L187.727 197.751V197.819H191.784V198.757H186.278ZM196.391 198.876C195.749 198.876 195.202 198.701 194.75 198.352C194.298 197.999 193.953 197.49 193.714 196.822C193.476 196.151 193.357 195.342 193.357 194.393C193.357 193.45 193.476 192.644 193.714 191.977C193.956 191.306 194.303 190.795 194.754 190.443C195.209 190.088 195.754 189.91 196.391 189.91C197.027 189.91 197.571 190.088 198.023 190.443C198.477 190.795 198.824 191.306 199.062 191.977C199.304 192.644 199.425 193.45 199.425 194.393C199.425 195.342 199.305 196.151 199.067 196.822C198.828 197.49 198.483 197.999 198.031 198.352C197.58 198.701 197.033 198.876 196.391 198.876ZM196.391 197.938C197.027 197.938 197.521 197.632 197.874 197.018C198.226 196.404 198.402 195.529 198.402 194.393C198.402 193.637 198.321 192.994 198.159 192.463C198 191.931 197.77 191.526 197.469 191.248C197.17 190.97 196.811 190.83 196.391 190.83C195.76 190.83 195.267 191.142 194.912 191.764C194.557 192.383 194.379 193.259 194.379 194.393C194.379 195.149 194.459 195.791 194.618 196.319C194.777 196.848 195.006 197.249 195.304 197.525C195.605 197.801 195.967 197.938 196.391 197.938ZM201.044 198.757V197.99L203.925 194.836C204.263 194.467 204.541 194.146 204.76 193.873C204.979 193.598 205.141 193.339 205.246 193.098C205.354 192.853 205.408 192.598 205.408 192.33C205.408 192.024 205.334 191.758 205.186 191.534C205.041 191.309 204.842 191.136 204.589 191.014C204.337 190.892 204.053 190.83 203.737 190.83C203.402 190.83 203.109 190.9 202.859 191.039C202.612 191.176 202.42 191.367 202.284 191.615C202.151 191.862 202.084 192.151 202.084 192.484H201.078C201.078 191.973 201.196 191.524 201.432 191.137C201.668 190.751 201.989 190.45 202.395 190.234C202.804 190.018 203.263 189.91 203.771 189.91C204.283 189.91 204.736 190.018 205.131 190.234C205.526 190.45 205.835 190.741 206.06 191.107C206.284 191.474 206.396 191.882 206.396 192.33C206.396 192.651 206.338 192.965 206.222 193.272C206.108 193.576 205.909 193.916 205.625 194.291C205.344 194.663 204.953 195.117 204.453 195.654L202.493 197.751V197.819H206.55V198.757H201.044ZM211.156 198.876C210.514 198.876 209.967 198.701 209.516 198.352C209.064 197.999 208.719 197.49 208.48 196.822C208.241 196.151 208.122 195.342 208.122 194.393C208.122 193.45 208.241 192.644 208.48 191.977C208.722 191.306 209.068 190.795 209.52 190.443C209.974 190.088 210.52 189.91 211.156 189.91C211.793 189.91 212.337 190.088 212.788 190.443C213.243 190.795 213.589 191.306 213.828 191.977C214.07 192.644 214.19 193.45 214.19 194.393C214.19 195.342 214.071 196.151 213.832 196.822C213.594 197.49 213.249 197.999 212.797 198.352C212.345 198.701 211.798 198.876 211.156 198.876ZM211.156 197.938C211.793 197.938 212.287 197.632 212.639 197.018C212.991 196.404 213.168 195.529 213.168 194.393C213.168 193.637 213.087 192.994 212.925 192.463C212.766 191.931 212.536 191.526 212.234 191.248C211.936 190.97 211.577 190.83 211.156 190.83C210.526 190.83 210.033 191.142 209.678 191.764C209.322 192.383 209.145 193.259 209.145 194.393C209.145 195.149 209.224 195.791 209.384 196.319C209.543 196.848 209.771 197.249 210.07 197.525C210.371 197.801 210.733 197.938 211.156 197.938Z" fill="white"/>
</svg>
