<svg width="351" height="352" viewBox="0 0 351 352" fill="none" xmlns="http://www.w3.org/2000/svg">
<circle cx="175.5" cy="175.536" r="174.928" fill="white" stroke="black" stroke-width="1.14332"/>
<path d="M1.06682 156.215C5.7817 113.648 25.8988 74.2744 57.6289 45.5104C89.3589 16.7463 130.512 0.577434 173.336 0.0492398L175.5 175.536L1.06682 156.215Z" fill="black"/>
<path d="M211.963 233.036C210.987 233.036 210.126 232.863 209.377 232.518C208.634 232.167 208.054 231.687 207.637 231.076C207.221 230.46 207.015 229.76 207.019 228.974C207.015 228.358 207.135 227.79 207.382 227.269C207.628 226.743 207.964 226.305 208.39 225.955C208.821 225.6 209.302 225.375 209.832 225.28V225.195C209.136 225.015 208.582 224.625 208.17 224.023C207.758 223.417 207.554 222.728 207.559 221.956C207.554 221.218 207.742 220.557 208.12 219.975C208.499 219.393 209.02 218.933 209.683 218.597C210.35 218.261 211.11 218.093 211.963 218.093C212.805 218.093 213.558 218.261 214.221 218.597C214.884 218.933 215.405 219.393 215.784 219.975C216.167 220.557 216.361 221.218 216.366 221.956C216.361 222.728 216.151 223.417 215.734 224.023C215.322 224.625 214.775 225.015 214.093 225.195V225.28C214.619 225.375 215.092 225.6 215.514 225.955C215.935 226.305 216.271 226.743 216.522 227.269C216.773 227.79 216.901 228.358 216.906 228.974C216.901 229.76 216.688 230.46 216.267 231.076C215.85 231.687 215.27 232.167 214.527 232.518C213.788 232.863 212.933 233.036 211.963 233.036ZM211.963 231.474C212.621 231.474 213.189 231.367 213.667 231.154C214.145 230.941 214.515 230.64 214.775 230.252C215.036 229.864 215.168 229.409 215.173 228.888C215.168 228.339 215.026 227.854 214.747 227.432C214.467 227.011 214.086 226.679 213.603 226.438C213.125 226.197 212.578 226.076 211.963 226.076C211.342 226.076 210.788 226.197 210.301 226.438C209.818 226.679 209.437 227.011 209.157 227.432C208.883 227.854 208.748 228.339 208.752 228.888C208.748 229.409 208.873 229.864 209.129 230.252C209.389 230.64 209.761 230.941 210.244 231.154C210.727 231.367 211.3 231.474 211.963 231.474ZM211.963 224.57C212.483 224.57 212.945 224.466 213.348 224.258C213.755 224.049 214.074 223.758 214.306 223.384C214.538 223.01 214.657 222.572 214.661 222.07C214.657 221.578 214.541 221.149 214.313 220.785C214.086 220.415 213.771 220.131 213.369 219.932C212.966 219.729 212.498 219.627 211.963 219.627C211.418 219.627 210.942 219.729 210.535 219.932C210.128 220.131 209.813 220.415 209.59 220.785C209.368 221.149 209.259 221.578 209.264 222.07C209.259 222.572 209.37 223.01 209.598 223.384C209.83 223.758 210.149 224.049 210.556 224.258C210.964 224.466 211.432 224.57 211.963 224.57ZM224.372 233.036C223.302 233.036 222.391 232.745 221.638 232.162C220.885 231.575 220.31 230.725 219.912 229.613C219.514 228.495 219.315 227.146 219.315 225.564C219.315 223.992 219.514 222.65 219.912 221.537C220.314 220.42 220.892 219.568 221.645 218.981C222.402 218.389 223.311 218.093 224.372 218.093C225.433 218.093 226.339 218.389 227.092 218.981C227.85 219.568 228.427 220.42 228.825 221.537C229.228 222.65 229.429 223.992 229.429 225.564C229.429 227.146 229.23 228.495 228.832 229.613C228.435 230.725 227.859 231.575 227.106 232.162C226.354 232.745 225.442 233.036 224.372 233.036ZM224.372 231.474C225.433 231.474 226.257 230.962 226.844 229.939C227.431 228.917 227.724 227.458 227.724 225.564C227.724 224.305 227.589 223.233 227.32 222.347C227.054 221.462 226.671 220.787 226.169 220.323C225.672 219.859 225.073 219.627 224.372 219.627C223.321 219.627 222.499 220.145 221.908 221.182C221.316 222.215 221.02 223.675 221.02 225.564C221.02 226.824 221.152 227.894 221.418 228.775C221.683 229.655 222.064 230.325 222.561 230.785C223.063 231.244 223.667 231.474 224.372 231.474ZM239.543 230.11V229.343C239.543 228.813 239.651 228.327 239.869 227.887C240.092 227.442 240.414 227.087 240.835 226.822C241.261 226.552 241.777 226.417 242.383 226.417C242.999 226.417 243.515 226.552 243.932 226.822C244.348 227.087 244.663 227.442 244.876 227.887C245.089 228.327 245.196 228.813 245.196 229.343V230.11C245.196 230.64 245.087 231.128 244.869 231.573C244.656 232.013 244.339 232.368 243.918 232.638C243.501 232.903 242.989 233.036 242.383 233.036C241.768 233.036 241.249 232.903 240.828 232.638C240.407 232.368 240.087 232.013 239.869 231.573C239.651 231.128 239.543 230.64 239.543 230.11ZM240.991 229.343V230.11C240.991 230.55 241.096 230.946 241.304 231.296C241.512 231.642 241.872 231.814 242.383 231.814C242.881 231.814 243.231 231.642 243.435 231.296C243.643 230.946 243.747 230.55 243.747 230.11V229.343C243.747 228.902 243.648 228.51 243.449 228.164C243.25 227.813 242.895 227.638 242.383 227.638C241.886 227.638 241.529 227.813 241.311 228.164C241.098 228.51 240.991 228.902 240.991 229.343ZM232.298 221.786V221.019C232.298 220.489 232.407 220.003 232.625 219.563C232.847 219.118 233.169 218.763 233.591 218.498C234.017 218.228 234.533 218.093 235.139 218.093C235.755 218.093 236.271 218.228 236.687 218.498C237.104 218.763 237.419 219.118 237.632 219.563C237.845 220.003 237.952 220.489 237.952 221.019V221.786C237.952 222.316 237.843 222.804 237.625 223.249C237.412 223.689 237.095 224.045 236.673 224.314C236.257 224.58 235.745 224.712 235.139 224.712C234.524 224.712 234.005 224.58 233.584 224.314C233.162 224.045 232.843 223.689 232.625 223.249C232.407 222.804 232.298 222.316 232.298 221.786ZM233.747 221.019V221.786C233.747 222.226 233.851 222.622 234.06 222.972C234.268 223.318 234.628 223.491 235.139 223.491C235.636 223.491 235.987 223.318 236.19 222.972C236.399 222.622 236.503 222.226 236.503 221.786V221.019C236.503 220.579 236.403 220.186 236.204 219.84C236.006 219.49 235.65 219.314 235.139 219.314C234.642 219.314 234.284 219.49 234.067 219.84C233.854 220.186 233.747 220.579 233.747 221.019ZM232.838 232.837L242.838 218.292H244.457L234.457 232.837H232.838Z" fill="black"/>
<path d="M75.1346 92.6651V91.3867L79.9357 86.131C80.4992 85.5155 80.9632 84.9804 81.3278 84.5259C81.6924 84.0666 81.9622 83.6357 82.1374 83.2333C82.3174 82.8261 82.4073 82.3999 82.4073 81.9549C82.4073 81.4435 82.2842 81.0008 82.038 80.6267C81.7965 80.2527 81.4651 79.9639 81.0437 79.7603C80.6223 79.5567 80.1488 79.4549 79.6232 79.4549C79.0645 79.4549 78.5768 79.5709 78.1602 79.8029C77.7482 80.0302 77.4286 80.3498 77.2013 80.7617C76.9788 81.1736 76.8675 81.6566 76.8675 82.2106H75.1914C75.1914 81.3583 75.3879 80.6102 75.7809 79.9662C76.1739 79.3223 76.7089 78.8204 77.386 78.4606C78.0678 78.1007 78.8325 77.9208 79.68 77.9208C80.5323 77.9208 81.2875 78.1007 81.9457 78.4606C82.6038 78.8204 83.1199 79.3057 83.494 79.9165C83.868 80.5273 84.055 81.2068 84.055 81.9549C84.055 82.4899 83.958 83.0131 83.7638 83.5245C83.5745 84.0311 83.243 84.5969 82.7695 85.2219C82.3008 85.8422 81.6497 86.5998 80.8164 87.4946L77.5494 90.989V91.1026H84.3107V92.6651H75.1346ZM91.9883 92.864C90.9182 92.864 90.0067 92.5728 89.2539 91.9904C88.5011 91.4033 87.9258 90.5534 87.5281 89.4407C87.1303 88.3232 86.9315 86.9738 86.9315 85.3924C86.9315 83.8204 87.1303 82.4781 87.5281 81.3654C87.9305 80.248 88.5082 79.3957 89.261 78.8086C90.0186 78.2167 90.9277 77.9208 91.9883 77.9208C93.0489 77.9208 93.9556 78.2167 94.7085 78.8086C95.466 79.3957 96.0437 80.248 96.4414 81.3654C96.8439 82.4781 97.0451 83.8204 97.0451 85.3924C97.0451 86.9738 96.8462 88.3232 96.4485 89.4407C96.0508 90.5534 95.4755 91.4033 94.7227 91.9904C93.9698 92.5728 93.0584 92.864 91.9883 92.864ZM91.9883 91.3015C93.0489 91.3015 93.8728 90.7901 94.4599 89.7674C95.047 88.7446 95.3406 87.2863 95.3406 85.3924C95.3406 84.1329 95.2056 83.0605 94.9357 82.175C94.6706 81.2896 94.2871 80.6149 93.7852 80.1509C93.288 79.6869 92.689 79.4549 91.9883 79.4549C90.9371 79.4549 90.1156 79.9733 89.5238 81.0103C88.9319 82.0425 88.636 83.5032 88.636 85.3924C88.636 86.6518 88.7686 87.7219 89.0337 88.6026C89.2989 89.4833 89.68 90.1533 90.1772 90.6125C90.6791 91.0718 91.2828 91.3015 91.9883 91.3015ZM107.159 89.9378V89.1708C107.159 88.6405 107.268 88.1552 107.485 87.7148C107.708 87.2697 108.03 86.9146 108.451 86.6495C108.877 86.3796 109.394 86.2446 110 86.2446C110.615 86.2446 111.131 86.3796 111.548 86.6495C111.965 86.9146 112.279 87.2697 112.493 87.7148C112.706 88.1552 112.812 88.6405 112.812 89.1708V89.9378C112.812 90.4681 112.703 90.9558 112.485 91.4009C112.272 91.8412 111.955 92.1964 111.534 92.4662C111.117 92.7314 110.606 92.864 110 92.864C109.384 92.864 108.866 92.7314 108.444 92.4662C108.023 92.1964 107.703 91.8412 107.485 91.4009C107.268 90.9558 107.159 90.4681 107.159 89.9378ZM108.608 89.1708V89.9378C108.608 90.3782 108.712 90.7735 108.92 91.1239C109.128 91.4696 109.488 91.6424 110 91.6424C110.497 91.6424 110.847 91.4696 111.051 91.1239C111.259 90.7735 111.363 90.3782 111.363 89.9378V89.1708C111.363 88.7304 111.264 88.3374 111.065 87.9918C110.866 87.6414 110.511 87.4662 110 87.4662C109.502 87.4662 109.145 87.6414 108.927 87.9918C108.714 88.3374 108.608 88.7304 108.608 89.1708ZM99.9144 81.614V80.8469C99.9144 80.3166 100.023 79.8313 100.241 79.391C100.464 78.9459 100.786 78.5908 101.207 78.3256C101.633 78.0557 102.149 77.9208 102.755 77.9208C103.371 77.9208 103.887 78.0557 104.304 78.3256C104.72 78.5908 105.035 78.9459 105.248 79.391C105.461 79.8313 105.568 80.3166 105.568 80.8469V81.614C105.568 82.1443 105.459 82.632 105.241 83.077C105.028 83.5174 104.711 83.8725 104.289 84.1424C103.873 84.4075 103.361 84.5401 102.755 84.5401C102.14 84.5401 101.621 84.4075 101.2 84.1424C100.779 83.8725 100.459 83.5174 100.241 83.077C100.023 82.632 99.9144 82.1443 99.9144 81.614ZM101.363 80.8469V81.614C101.363 82.0543 101.467 82.4497 101.676 82.8C101.884 83.1457 102.244 83.3185 102.755 83.3185C103.252 83.3185 103.603 83.1457 103.806 82.8C104.015 82.4497 104.119 82.0543 104.119 81.614V80.8469C104.119 80.4066 104.02 80.0136 103.821 79.6679C103.622 79.3176 103.267 79.1424 102.755 79.1424C102.258 79.1424 101.901 79.3176 101.683 79.6679C101.47 80.0136 101.363 80.4066 101.363 80.8469ZM100.454 92.6651L110.454 78.1196H112.074L102.074 92.6651H100.454Z" fill="white"/>
</svg>
